<?xml version="1.0" encoding="utf-8"?>
<!-- Generator: Adobe Illustrator 15.1.0, SVG Export Plug-In . SVG Version: 6.00 Build 0)  -->
<!DOCTYPE svg PUBLIC "-//W3C//DTD SVG 1.1//EN" "http://www.w3.org/Graphics/SVG/1.1/DTD/svg11.dtd">
<svg version="1.1" id="Layer_1" xmlns="http://www.w3.org/2000/svg" xmlns:xlink="http://www.w3.org/1999/xlink" x="0px" y="0px"
	 width="158px" height="50px" viewBox="0 0 158 50" enable-background="new 0 0 158 50" xml:space="preserve">
<path fill="#9C9B9B" d="M27.195,30.48c0.121-0.213,0.176-0.416,0.176-0.592c0-0.404-0.228-0.597-0.691-0.597
	c-0.333,0-0.684,0.112-1.043,0.342c-0.363,0.232-0.638,0.517-0.822,0.847l-5.518,9.551c-0.198,0.328-0.482,0.609-0.845,0.843
	c-0.372,0.233-0.714,0.353-1.043,0.353h-5.973c-0.461,0-0.698-0.205-0.698-0.6c0-0.184,0.067-0.391,0.196-0.602l5.5-9.545
	c0.129-0.213,0.198-0.416,0.198-0.599c0-0.397-0.233-0.59-0.692-0.59c-0.334,0-0.681,0.112-1.049,0.342
	c-0.36,0.232-0.645,0.517-0.844,0.847l-5.494,9.545c-0.199,0.334-0.483,0.613-0.845,0.849c-0.36,0.233-0.714,0.353-1.043,0.353
	H0.702c-0.468,0-0.702-0.199-0.702-0.6c0-0.184,0.069-0.382,0.205-0.602l6.187-10.732c0.196-0.333,0.477-0.618,0.845-0.848
	c0.367-0.235,0.714-0.354,1.047-0.354h27.442c0.47,0,0.696,0.201,0.696,0.603c0,0.181-0.063,0.381-0.198,0.6L24.69,49.275
	c-0.253,0.432-0.504,0.647-0.773,0.647c-0.145,0-0.272-0.083-0.369-0.251l-3.309-5.593c-0.1-0.181-0.149-0.411-0.149-0.694
	c0-0.416,0.098-0.789,0.294-1.121L27.195,30.48"/>
<path fill="#9C9B9B" d="M56.993,28.17c0.466,0,0.699,0.2,0.699,0.6c0,0.184-0.068,0.381-0.199,0.601l-6.194,10.733
	c-0.184,0.334-0.456,0.611-0.827,0.85c-0.38,0.232-0.722,0.352-1.062,0.352H32.705c-0.448,0-0.667-0.201-0.667-0.602
	c0-0.18,0.052-0.379,0.172-0.6l6.188-10.733c0.201-0.332,0.479-0.616,0.851-0.847c0.36-0.234,0.714-0.354,1.043-0.354h5.962
	c0.46,0,0.694,0.2,0.694,0.6c0,0.184-0.058,0.381-0.196,0.601l-5.491,9.546c-0.132,0.215-0.198,0.415-0.198,0.598
	c0,0.395,0.236,0.592,0.691,0.592c0.334,0,0.68-0.116,1.045-0.35c0.369-0.23,0.645-0.51,0.85-0.84l5.493-9.546
	c0.193-0.332,0.479-0.616,0.841-0.847c0.366-0.234,0.714-0.354,1.044-0.354H56.993"/>
<path fill="#9C9B9B" d="M69.515,25.315c0.103,0.16,0.149,0.386,0.149,0.669c0,0.416-0.098,0.798-0.297,1.146l-7.479,12.975
	c-0.201,0.33-0.486,0.61-0.841,0.847c-0.374,0.231-0.72,0.353-1.051,0.353h-5.962c-0.467,0-0.7-0.201-0.7-0.601
	c0-0.183,0.066-0.381,0.199-0.599l7.583-13.123l3.953-6.862c0.246-0.432,0.509-0.648,0.789-0.648c0.153,0,0.267,0.072,0.355,0.219
	L69.515,25.315"/>
<path fill="#9C9B9B" d="M67.16,49.352C66.912,49.785,66.648,50,66.365,50c-0.157,0-0.272-0.083-0.371-0.25l-3.287-5.592
	c-0.099-0.166-0.146-0.376-0.146-0.618c0-0.481,0.114-0.933,0.368-1.347l11.533-19.987c0.182-0.331,0.466-0.612,0.837-0.847
	c0.372-0.231,0.728-0.35,1.057-0.35h5.964c0.447,0,0.674,0.201,0.674,0.598c0,0.183-0.061,0.383-0.18,0.599l-1.383,2.386
	c-0.125,0.218-0.181,0.415-0.181,0.601c0,0.393,0.229,0.59,0.694,0.59c0.602,0,0.894,0.14,0.894,0.429
	c0,0.244-0.208,0.442-0.639,0.595c-0.349,0.117-0.666,0.178-0.949,0.178c-0.33,0-0.681,0.113-1.049,0.34
	c-0.356,0.234-0.642,0.516-0.839,0.846L67.16,49.352"/>
<path fill="#9C9B9B" d="M86.916,32.939c-0.107,0.213-0.162,0.416-0.162,0.597c0,0.399,0.229,0.606,0.689,0.606
	c0.314,0,0.662-0.117,1.037-0.352c0.369-0.232,0.647-0.516,0.83-0.848l1.4-2.385c0.107-0.216,0.167-0.418,0.167-0.596
	c0-0.404-0.228-0.597-0.671-0.597c-0.335,0-0.686,0.114-1.062,0.345c-0.371,0.23-0.652,0.516-0.836,0.839L86.916,32.939
	 M85.691,35.682c-0.365,0.227-0.648,0.51-0.848,0.842l-1.373,2.373c-0.119,0.219-0.179,0.422-0.179,0.607
	c0,0.396,0.231,0.6,0.696,0.6c0.33,0,0.684-0.114,1.047-0.348c0.365-0.23,0.65-0.512,0.846-0.841l0.705-1.196
	c0.173-0.334,0.452-0.613,0.814-0.85c0.356-0.227,0.707-0.34,1.041-0.34h5.97c0.454,0,0.688,0.195,0.688,0.598
	c0,0.18-0.051,0.375-0.17,0.592l-1.389,2.385c-0.184,0.334-0.462,0.613-0.833,0.848c-0.377,0.234-0.731,0.354-1.062,0.354H74.938
	c-0.44,0-0.665-0.201-0.665-0.602c0-0.18,0.064-0.379,0.171-0.6l6.218-10.734c0.184-0.333,0.455-0.614,0.814-0.846
	c0.369-0.237,0.721-0.354,1.053-0.354h16.705c0.457,0,0.69,0.199,0.69,0.6c0,0.184-0.053,0.381-0.169,0.6l-2.763,4.773
	c-0.201,0.332-0.487,0.606-0.851,0.842c-0.365,0.231-0.713,0.347-1.045,0.347h-8.361C86.406,35.33,86.052,35.448,85.691,35.682"/>
<path fill="#9C9B9B" d="M112.189,32.943c-0.461,0-0.692-0.198-0.692-0.594c0-0.183,0.058-0.379,0.169-0.595l0.7-1.196
	c0.12-0.215,0.167-0.416,0.167-0.595c0-0.403-0.217-0.596-0.662-0.596c-0.333,0-0.68,0.112-1.042,0.344
	c-0.37,0.231-0.647,0.515-0.845,0.847l-4.824,8.355c-0.119,0.215-0.182,0.415-0.182,0.598c0,0.394,0.228,0.594,0.676,0.594
	c0.33,0,0.685-0.117,1.056-0.351s0.649-0.511,0.83-0.841l2.065-3.576c0.205-0.34,0.48-0.619,0.848-0.854
	c0.365-0.229,0.714-0.344,1.044-0.344h5.963c0.472,0,0.699,0.195,0.699,0.601c0,0.178-0.067,0.375-0.198,0.591l-2.762,4.773
	c-0.176,0.33-0.459,0.609-0.833,0.847c-0.368,0.231-0.718,0.353-1.033,0.353H96.627c-0.467,0-0.691-0.201-0.691-0.601
	c0-0.183,0.057-0.381,0.176-0.599l6.211-10.736c0.181-0.332,0.459-0.616,0.832-0.848c0.369-0.235,0.726-0.354,1.062-0.354h16.706
	c0.443,0,0.666,0.201,0.666,0.602c0,0.182-0.06,0.381-0.175,0.6l-1.393,2.387c-0.179,0.331-0.457,0.609-0.834,0.839
	c-0.371,0.232-0.713,0.351-1.028,0.351h-5.97"/>
<path fill="#BE0000" d="M139.339,7.058c0.224-0.409,0.336-0.796,0.336-1.142c0-0.765-0.448-1.147-1.335-1.147
	c-0.639,0-1.305,0.222-2.003,0.666c-0.7,0.446-1.228,0.991-1.578,1.629l-9.838,16.29c-0.386,0.629-0.921,1.173-1.624,1.619
	c-0.701,0.446-1.369,0.667-2.009,0.667h-11.454c-0.896,0-1.34-0.389-1.34-1.148c0-0.35,0.123-0.737,0.374-1.147l9.866-16.484
	c0.259-0.417,0.39-0.798,0.39-1.149c0-0.761-0.448-1.138-1.338-1.138c-0.636,0-1.304,0.221-2,0.665
	c-0.703,0.445-1.241,0.99-1.624,1.622l-9.866,16.484c-0.381,0.639-0.922,1.178-1.62,1.629c-0.709,0.446-1.371,0.667-2.012,0.667
	H89.212c-0.892,0-1.336-0.381-1.336-1.147c0-0.35,0.125-0.729,0.38-1.147L100.143,2.73c0.381-0.638,0.922-1.175,1.623-1.62
	c0.699-0.452,1.366-0.676,2.008-0.676h52.689c0.896,0,1.34,0.391,1.34,1.149c0,0.353-0.13,0.731-0.387,1.147l-22.143,38.374
	c-0.479,0.832-0.971,1.238-1.479,1.238c-0.289,0-0.525-0.156-0.72-0.472l-6.347-10.743c-0.192-0.354-0.285-0.796-0.285-1.333
	c0-0.796,0.188-1.514,0.57-2.151L139.339,7.058"/>
</svg>
